<svg fill="none" height="24" width="25" xmlns="http://www.w3.org/2000/svg"><path clip-rule="evenodd" d="M3.563 23.412c.87.322 1.79.493 2.718.503 1.543.071 2.005.085 5.914.085 3.908 0 4.372-.014 5.915-.085a8.08 8.08 0 0 0 2.718-.504 4.848 4.848 0 0 0 2.779-2.777c.322-.87.492-1.79.503-2.718.071-1.545.085-2.007.085-5.916 0-3.908-.014-4.37-.085-5.915a8.08 8.08 0 0 0-.503-2.718 4.533 4.533 0 0 0-1.095-1.684A4.531 4.531 0 0 0 20.828.588 8.126 8.126 0 0 0 18.11.085C16.566.015 16.103 0 12.195 0S7.824.014 6.28.085a8.08 8.08 0 0 0-2.718.503A4.519 4.519 0 0 0 1.88 1.683 4.565 4.565 0 0 0 .784 3.368 8.126 8.126 0 0 0 .28 6.085C.211 7.629.195 8.09.195 12s.015 4.373.086 5.916c.01.928.18 1.847.503 2.718a4.513 4.513 0 0 0 1.096 1.683c.472.486 1.047.86 1.683 1.095zM9.749 10.4a2.972 2.972 0 1 0 4.942 3.303A2.972 2.972 0 0 0 9.749 10.4zm-1.336 4.195a4.578 4.578 0 1 1 7.614-5.088 4.578 4.578 0 0 1-7.614 5.088zm7.676-6.71a1.07 1.07 0 1 1 1.782-1.187 1.07 1.07 0 0 1-1.782 1.188zM6.962 19.004c.53.196 1.09.3 1.656.306.94.043 1.22.052 3.602.052 2.381 0 2.664-.009 3.603-.052a4.923 4.923 0 0 0 1.656-.306 2.951 2.951 0 0 0 1.693-1.692c.195-.53.299-1.09.305-1.655.044-.941.052-1.222.052-3.604 0-2.38-.008-2.662-.052-3.603a4.925 4.925 0 0 0-.305-1.656 2.952 2.952 0 0 0-1.693-1.692 4.96 4.96 0 0 0-1.656-.306c-.94-.043-1.223-.052-3.603-.052s-2.662.009-3.602.052a4.923 4.923 0 0 0-1.656.306A2.95 2.95 0 0 0 5.27 6.793a4.96 4.96 0 0 0-.306 1.656c-.042.94-.052 1.222-.052 3.603 0 2.381.009 2.664.052 3.603.006.566.11 1.126.306 1.656a2.951 2.951 0 0 0 1.692 1.692zm-.583-15.4c.693-.259 1.425-.399 2.165-.414.952-.043 1.256-.053 3.677-.053 2.421 0 2.725.01 3.676.053.74.015 1.472.155 2.164.415A4.56 4.56 0 0 1 20.67 6.21c.259.693.4 1.425.414 2.165.043.95.053 1.255.053 3.676 0 2.421-.01 2.725-.053 3.676a6.521 6.521 0 0 1-.414 2.165A4.559 4.559 0 0 1 18.06 20.5c-.693.26-1.425.4-2.165.415-.95.043-1.255.053-3.676.053s-2.725-.01-3.676-.053A6.546 6.546 0 0 1 6.38 20.5a4.56 4.56 0 0 1-2.607-2.607 6.54 6.54 0 0 1-.414-2.165c-.044-.95-.054-1.255-.054-3.676 0-2.421.01-2.725.054-3.676a6.54 6.54 0 0 1 .414-2.165 4.558 4.558 0 0 1 2.607-2.607z" fill="#4b5aae" fill-rule="evenodd" opacity=".9"/></svg>