<svg fill="none" height="24" width="25" xmlns="http://www.w3.org/2000/svg"><clipPath id="a"><path d="M.195 0h24v24h-24z"/></clipPath><g clip-path="url('#a')" opacity=".9"><g fill="#4b5aae"><path d="m19.243 6.626-.003.003c.063.174.121.35.171.53a7.83 7.83 0 0 0-.168-.533zm-7.047-4.953L6.893 3.87 9.94 6.917a3.187 3.187 0 1 1 4.521 4.49l4.485-4.484.294-.294a7.49 7.49 0 0 0-7.044-4.956z"/><path d="M12.195 12.355A3.187 3.187 0 0 1 9.94 6.916L6.892 3.87a7.476 7.476 0 0 0-2.197 5.303c0 3.305 1.7 5.376 3.698 7.5.134.138.245.29.372.431l5.67-5.67c-.595.591-1.4.923-2.24.922z"/><path d="M12.195 1.673a7.5 7.5 0 0 0-7.5 7.5 8.32 8.32 0 0 0 .41 2.59l9.637-9.637a7.468 7.468 0 0 0-2.547-.453zM12.872 21.84a16.374 16.374 0 0 1 3.024-5.172c2.148-2.183 3.8-4.19 3.8-7.495a7.468 7.468 0 0 0-.453-2.547L8.766 17.103a13.534 13.534 0 0 1 2.693 4.707.747.747 0 0 0 1.413.03z"/></g><path d="M11.458 21.81zM12.98 21.58zm1.225-2.561z" fill="#fff"/><path d="M6.892 3.87a7.476 7.476 0 0 0-2.197 5.302 8.32 8.32 0 0 0 .41 2.591l4.84-4.84z" fill="#4b5aae"/></g></svg>