<svg fill="none" height="24" viewBox="0 0 25 24" width="25" xmlns="http://www.w3.org/2000/svg" xmlns:xlink="http://www.w3.org/1999/xlink"><clipPath id="a"><path d="m.195312 0h24v24h-24z"/></clipPath><g clip-path="url(#a)" opacity=".9"><g fill="#4b5aae"><path d="m19.2428 6.62598-.003.00285c.0628.17393.1213.35003.1714.52965-.0508-.17985-.1054-.35812-.1684-.5325zm-7.047-4.95337-5.30322 2.19697 3.04695 3.04703c.59557-.59964 1.40487-.93815 2.25007-.94104.8451-.0029 1.6567.33004 2.2564.92559.5996.59554.9381 1.4049.941 2.25002.0029.84513-.33 1.65682-.9256 2.25642l4.4844-4.48499.294-.29378c-.5215-1.45046-1.4778-2.70494-2.7384-3.59189-1.2606-.88694-2.7642-1.36338-4.3056-1.36433z"/><path d="m12.1953 12.3549c-.63-.0001-1.2459-.1869-1.7698-.5369-.52392-.3499-.9324-.8472-1.17383-1.4291-.24143-.58198-.30499-1.22241-.18266-1.84045.12234-.61804.42509-1.18596.87001-1.63204l-3.04695-3.04703c-.69747.69563-1.2506 1.52222-1.62759 2.43229-.37699.91008-.57042 1.88568-.56916 2.87074 0 3.30429 1.69882 5.37509 3.6975 7.49999.13402.1371.24555.2889.37192.431l5.67056-5.6707c-.5954.5913-1.4008.9228-2.24.9222z"/><path d="m12.1953 1.67261c-1.9891 0-3.89675.79017-5.30328 2.1967-1.40652 1.40652-2.1967 3.31417-2.1967 5.3033-.00152.87989.13655 1.75439.40906 2.59099l9.63792-9.63754c-.8162-.29818-1.6781-.45163-2.547-.45345z"/><path d="m12.872 21.8401c.6813-1.8955 1.7064-3.649 3.024-5.1725 2.1484-2.1828 3.8002-4.1905 3.8002-7.49502-.0017-.86884-.1551-1.73071-.4531-2.54685l-10.47748 10.47747c1.20625 1.3712 2.12248 2.9723 2.69358 4.7069.0479.1478.1406.277.2653.3696.1247.0927.2751.1443.4304.1476.1554.0033.3078-.0419.4363-.1292s.2267-.2124.2808-.358z"/></g><path d="m11.4582 21.81c-.1534-.4518-.3261-.8909-.5179-1.3174.1894.4277.3645.8652.5179 1.3174z" fill="#fff"/><path d="m12.9805 21.5805c.1758-.4435.3648-.8792.567-1.3071-.2034.427-.3912.8635-.567 1.3071zm1.2249-2.5617c-.216.3718-.4125.7551-.6 1.1431.1875-.3884.3848-.7709.6-1.1431z" fill="#fff"/><path d="m6.89208 3.86938c-.69747.69563-1.2506 1.52222-1.62759 2.43229-.37699.91008-.57042 1.88568-.56917 2.87074-.00152.87989.13655 1.75439.40906 2.59099l4.84094-4.84099z" fill="#4b5aae"/></g></svg>