<svg fill="none" height="24" viewBox="0 0 25 24" width="25" xmlns="http://www.w3.org/2000/svg"><path clip-rule="evenodd" d="m3.56281 23.4115c.87047.3227 1.79003.493 2.71833.5033l-.00024.0003c1.54281.0713 2.00516.0849 5.9138.0849 3.9087 0 4.3725-.0144 5.9153-.0849.9283-.0105 1.8478-.1808 2.7183-.5036.6314-.2434 1.2048-.6163 1.6834-1.0947.4785-.4785.8516-1.0518 1.0951-1.6831.3221-.8706.4924-1.79.5036-2.7181.0706-1.5442.0849-2.0066.0849-5.9152 0-3.90871-.0143-4.37106-.0849-5.91528-.0105-.92831-.1808-1.84787-.5036-2.71833-.2346-.63609-.6088-1.21146-1.0952-1.68375-.4722-.48625-1.0474-.860381-1.6833-1.09481-.8706-.321751-1.7898-.4919767-2.7179-.5032897-1.5442-.0691757-2.0075-.0849403-5.9152-.0849403-3.90773 0-4.37126.0143528-5.91477.0849403-.92829.0103596-1.84786.1806137-2.71833.5032897-.6362.23412-1.21158.60838-1.68351 1.09505-.48556.47312-.85963 1.04846-1.095048 1.68422-.321672.87033-.491896 1.78934-.503289 2.71715-.069176 1.54422-.084941 2.00539-.084941 5.91525 0 3.9098.014353 4.3726.085647 5.9157.01016.9282.180175 1.8476.502583 2.7181.234278.6362.608878 1.2115 1.095988 1.683.47252.4858 1.04763.8599 1.68328 1.0948zm6.18633-13.0116c-.32661.4887-.50097 1.0633-.50101 1.6511-.00007.7882.31295 1.5441.87017 2.1015.5573.5574 1.3131.8706 2.1013.8707.5878.0001 1.1625-.1741 1.6513-.5006s.8698-.7906 1.0948-1.3336c.225-.5431.2839-1.1406.1693-1.7172-.1146-.5765-.3976-1.1061-.8132-1.52179s-.9451-.69881-1.5216-.81355c-.5765-.11473-1.1741-.05594-1.7172.16895-.543.22489-1.0072.60578-1.33386 1.09449zm-1.33624 4.1947c-.50307-.7529-.77159-1.6381-.77159-2.5436-.00003-.6012.11838-1.1966.34845-1.752.23007-.55553.5673-1.06025.99244-1.48539.42514-.42515.92986-.76238 1.4853-.99245.5555-.23007 1.1509-.34847 1.7521-.34844.9055 0 1.7907.26851 2.5436.77158.7529.50308 1.3397 1.21811 1.6862 2.0547.3465.8366.4372 1.7571.2606 2.6452-.1767.8881-.6127 1.7039-1.253 2.3442s-1.4561 1.0763-2.3442 1.253c-.8881.1766-1.8086.086-2.6452-.2606-.8366-.3465-1.55163-.9333-2.0547-1.6862zm7.6764-6.70882c-.1175-.17599-.1802-.38287-.1801-.59447h.0005c.0003-.28363.1131-.55556.3137-.75607s.4725-.3132.7562-.31333c.2116.0001.4184.06294.5943.18057.1759.11764.3129.28479.3938.48032.0809.19552.102.41065.0606.61817-.0413.20751-.1433.3981-.293.54766s-.3404.25137-.5479.29256c-.2076.04119-.4227.01991-.6182-.06115-.1954-.08107-.3624-.21827-.4799-.39426zm-9.12704 11.11692c.53028.1962 1.09037.2997 1.65575.3059v.0005c.93952.043 1.22093.0517 3.60209.0517 2.3811 0 2.6635-.0084 3.6032-.0517.5654-.0061 1.1255-.1096 1.6558-.3059.3846-.1482.7338-.3753 1.0253-.6667s.5188-.6405.6672-1.0251c.1958-.5303.2992-1.0904.3058-1.6557.0431-.9407.0518-1.2221.0518-3.6033 0-2.38111-.0085-2.66205-.0518-3.60321-.0061-.56539-.1096-1.1255-.3058-1.65576-.1483-.38467-.3755-.73402-.667-1.02553-.2915-.2915-.6408-.51869-1.0255-.66692-.5305-.19557-1.0904-.29902-1.6558-.30588-.9406-.04282-1.2232-.052-3.6032-.052-2.37999 0-2.66233.00847-3.60209.05177-.56538.00612-1.12549.10959-1.65575.30587-.38469.14822-.73404.37541-1.02555.66691-.2915.29151-.51869.64086-.6669 1.02555-.19557.53045-.29902 1.09044-.30588 1.65575-.04235.9407-.05176 1.22234-.05176 3.60325 0 2.3809.00847 2.6633.05176 3.603.00612.5654.10959 1.1255.30588 1.6558.14838.3845.37564.7337.66713 1.025.29149.2914.64075.5185 1.02532.6667zm-.58282-15.39912c.69293-.25954 1.42489-.39956 2.16469-.41411h.00047c.95128-.04376 1.25575-.05388 3.6767-.05388 2.4209 0 2.7246.01035 3.6755.05388.7398.01437 1.4718.1544 2.1646.41411.5922.22919 1.13.57953 1.5789 1.02858.449.44906.7992.98693 1.0282 1.57916.2595.69293.3996 1.42489.4141 2.16469.0431.95081.0532 1.25457.0532 3.67599 0 2.4214-.0099 2.7247-.0532 3.6759-.0142.7399-.1543 1.4719-.4141 2.1647-.2291.5924-.5793 1.1303-1.0284 1.5794-.4491.449-.987.7993-1.5794 1.0284-.6929.2594-1.4249.3995-2.1646.4141-.9509.0437-1.2546.0539-3.676.0539s-2.72492-.0106-3.67597-.0539c-.73978-.0147-1.47173-.1547-2.16469-.4141-.59234-.2291-1.13028-.5794-1.57935-1.0284-.44907-.4491-.79935-.987-1.02839-1.5794-.25951-.6929-.39953-1.4249-.41411-2.1647-.04376-.9508-.05388-1.2545-.05388-3.6759 0-2.42142.00988-2.72541.05388-3.67599.01459-.73979.15461-1.47175.41411-2.16469.22903-.59234.57931-1.13029 1.02838-1.57936s.98702-.79935 1.57936-1.02838z" fill="#4b5aae" fill-rule="evenodd" opacity=".9"/></svg>