<svg fill="none" height="24" viewBox="0 0 25 24" width="25" xmlns="http://www.w3.org/2000/svg" xmlns:xlink="http://www.w3.org/1999/xlink"><clipPath id="a"><path d="m.195312 0h24v24h-24z"/></clipPath><g clip-path="url(#a)" opacity=".9"><path d="m24.1953 12c0-6.62742-5.3726-12-12-12s-11.999988 5.37258-11.999988 12c0 5.9895 4.388228 10.954 10.124988 11.8542v-8.3854h-3.04686v-3.4688h3.04686v-2.64375c0-3.0075 1.7915-4.66875 4.5326-4.66875 1.3129 0 2.6862.23438 2.6862.23438v2.95312h-1.5132c-1.4907 0-1.9556.925-1.9556 1.874v2.251h3.3281l-.532 3.4688h-2.7961v8.3854c5.7368-.9002 10.125-5.8647 10.125-11.8542z" fill="#4b5aae"/></g></svg>